# Blender v2.82 (sub 7) OBJ File: 'couch1.blend'
# www.blender.org
o Plane
v 0.600000 0.000000 -0.500384
v 0.600000 0.000000 0.499616
v 0.600000 0.500000 -0.500384
v 0.600000 0.500000 0.499616
v 0.600000 0.000000 0.249616
v 0.600000 0.500000 0.249616
v 0.392510 0.000000 -0.500384
v 0.392510 0.500000 0.249616
v 0.392510 0.000000 0.249616
v 0.600000 0.889194 0.499616
v 0.600000 1.000000 0.444213
v 0.600000 0.967546 0.483389
v 0.600000 1.000000 0.291926
v 0.600000 0.915381 0.249616
v 0.600000 0.975216 0.262008
v 0.392510 1.000000 0.291926
v 0.392510 0.915381 0.249616
v 0.392510 0.975216 0.262008
v 0.430108 0.750000 -0.481585
v 0.392510 0.712402 -0.500384
v 0.403522 0.738988 -0.494878
v 0.600000 0.712402 -0.500384
v 0.562402 0.750000 -0.481585
v 0.588988 0.738988 -0.494878
v 0.562402 0.750000 0.249616
v 0.600000 0.712402 0.249616
v 0.588988 0.738988 0.249616
v 0.392510 0.712402 0.249616
v 0.430108 0.750000 0.249616
v 0.403522 0.738988 0.249616
v 0.392510 0.500000 -0.465321
v 0.392510 0.429874 -0.500384
v 0.392510 0.479461 -0.490114
v 0.392510 0.500000 -0.500384
v -0.600000 0.000000 -0.500384
v -0.600000 0.000000 0.499616
v -0.600000 0.500000 -0.500384
v -0.600000 0.500000 0.499616
v -0.600000 0.000000 0.249616
v -0.600000 0.500000 0.249616
v -0.392510 0.000000 -0.500384
v -0.392510 0.500000 0.249616
v -0.392510 0.000000 0.249616
v -0.600000 0.889194 0.499616
v -0.600000 1.000000 0.444213
v -0.600000 0.967546 0.483389
v -0.600000 1.000000 0.291926
v -0.600000 0.915381 0.249616
v -0.600000 0.975216 0.262008
v -0.392510 1.000000 0.291926
v -0.392510 0.915381 0.249616
v -0.392510 0.975216 0.262008
v -0.430108 0.750000 -0.481585
v -0.392510 0.712402 -0.500384
v -0.403522 0.738988 -0.494878
v -0.600000 0.712402 -0.500384
v -0.562402 0.750000 -0.481585
v -0.588988 0.738988 -0.494878
v -0.562402 0.750000 0.249616
v -0.600000 0.712402 0.249616
v -0.588988 0.738988 0.249616
v -0.392510 0.712402 0.249616
v -0.430108 0.750000 0.249616
v -0.403522 0.738988 0.249616
v -0.392510 0.500000 -0.465321
v -0.392510 0.429874 -0.500384
v -0.392510 0.479461 -0.490114
v -0.392510 0.500000 -0.500384
v 0.000000 0.000000 -0.500384
v 0.000000 0.000000 0.249616
vt 1.003199 0.403494
vt 0.753199 0.390400
vt 0.947796 0.348091
vt 0.753199 0.598091
vt 1.003199 0.848091
vt 0.753199 0.848091
vt 0.003199 0.598091
vt 0.003199 0.848091
vt 0.753245 1.000738
vt 0.649500 0.250739
vt 0.649500 1.000738
vt 0.453245 0.250739
vt 0.453245 1.000738
vt 0.649500 0.965675
vt 0.256990 0.250739
vt 0.649500 0.250739
vt 0.649500 0.390400
vt 0.649500 0.598091
vt 0.003199 0.491890
vt 0.668299 0.981939
vt 0.734446 0.250739
vt 0.734446 0.981939
vt 0.003199 0.491890
vt 0.003199 0.598091
vt 0.038262 0.598091
vt 0.753245 0.238346
vt 0.649500 0.208429
vt 0.753245 0.208429
vt 0.649500 0.360483
vt 0.753245 0.360483
vt 0.649500 0.491890
vt 0.747739 0.478597
vt 0.753245 0.491890
vt 0.747739 0.995232
vt 0.655006 0.995232
vt 0.008705 0.478597
vt 0.753199 0.491890
vt 0.747739 0.250739
vt 0.655006 0.250739
vt 0.668299 0.250739
vt 0.008705 0.478597
vt 0.753199 0.491890
vt 0.753199 0.478597
vt 0.256990 0.390400
vt 0.256990 0.360483
vt 0.649500 0.633154
vt 0.256990 0.608360
vt 0.649500 0.608360
vt 0.649500 0.990469
vt 0.256990 0.965675
vt 0.649500 0.598091
vt 0.753245 0.598091
vt 0.013469 0.608360
vt 0.003199 0.633154
vt 0.256990 0.238346
vt 0.256990 0.208429
vt 0.795509 0.348091
vt 0.765592 0.360483
vt 0.753199 0.390400
vt 1.003199 0.848091
vt 0.753199 0.598091
vt 0.753199 0.848091
vt 0.003199 0.598091
vt 0.003199 0.848091
vt 0.256990 0.250739
vt 0.153245 1.000738
vt 0.256990 1.000738
vt 0.153245 0.598091
vt 0.256990 0.598091
vt 0.003199 0.491890
vt 0.238191 0.981939
vt 0.172044 0.250739
vt 0.238191 0.250739
vt 0.038262 0.598091
vt 0.003199 0.598091
vt 0.003199 0.491890
vt 0.153245 0.238346
vt 0.153245 0.208429
vt 0.153245 0.390400
vt 0.153245 0.360483
vt 0.256990 0.491890
vt 0.158751 0.478597
vt 0.251484 0.478597
vt 0.251484 0.995232
vt 0.172044 0.981939
vt 0.753199 0.491890
vt 0.008705 0.478597
vt 0.158751 0.250739
vt 0.158751 0.995232
vt 0.251484 0.250739
vt 0.008705 0.478597
vt 0.753199 0.491890
vt 0.153245 0.598091
vt 0.256990 0.598091
vt 0.256990 0.633154
vt 0.013469 0.608360
vt 0.153245 0.056142
vt 0.753245 0.056142
vt 0.153245 0.016966
vt 0.753245 0.016966
vt 0.753245 0.364318
vt 0.153245 0.403494
vt 0.753245 0.403494
vt 0.153245 0.598091
vt 0.753245 0.598091
vt 0.153245 0.848091
vt 0.753245 0.848091
vt 0.153245 0.000739
vt 0.453245 0.848091
vt 0.256990 0.848091
vt 1.003199 0.598091
vt 0.765592 0.360483
vt 0.795509 0.348091
vt 0.986972 0.364318
vt 0.753245 0.250739
vt 0.753199 0.598091
vt 0.649500 0.238346
vt 0.655006 0.478597
vt 0.753199 0.478597
vt 0.256990 0.990469
vt 0.753245 0.848091
vt 0.649500 0.848091
vt 1.003199 0.403494
vt 1.003199 0.598091
vt 0.986972 0.364318
vt 0.947796 0.348091
vt 0.153245 0.250739
vt 0.753199 0.598091
vt 0.153245 0.491890
vt 0.753199 0.478597
vt 0.753199 0.478597
vt 0.153245 0.848091
vt 0.003199 0.633154
vt 0.153245 0.364318
vt 0.753245 0.000739
vn 1.0000 -0.0000 0.0000
vn 0.0000 -1.0000 0.0000
vn 0.0000 1.0000 0.0000
vn 0.0000 0.0000 -1.0000
vn -1.0000 0.0000 0.0000
vn 0.0000 0.7701 -0.6380
vn 0.0000 0.2028 -0.9792
vn 0.9239 0.3827 0.0000
vn 0.3827 0.9239 0.0000
vn -0.3827 0.9239 0.0000
vn -0.9239 0.3827 0.0000
vn 0.0000 0.7701 0.6380
vn 0.0000 0.2028 0.9792
vn 0.0000 0.0000 1.0000
s off
f 10/1/1 14/2/1 11/3/1
f 6/4/1 2/5/1 5/6/1
f 3/7/1 5/6/1 1/8/1
f 1/9/2 9/10/2 7/11/2
f 7/11/2 70/12/2 69/13/2
f 31/14/3 42/15/3 8/16/3
f 17/17/4 6/4/4 8/18/4
f 22/19/1 6/4/1 3/7/1
f 19/20/3 25/21/3 23/22/3
f 20/23/5 34/24/5 31/25/5
f 15/26/6 16/27/6 13/28/6
f 14/2/7 18/29/7 15/30/7
f 20/31/7 24/32/7 22/33/7
f 19/20/6 24/34/6 21/35/6
f 24/36/8 26/37/8 22/19/8
f 23/22/9 27/38/9 24/34/9
f 19/20/10 30/39/10 29/40/10
f 21/41/11 28/42/11 30/43/11
f 18/29/7 51/44/7 52/45/7
f 32/46/7 67/47/7 33/48/7
f 33/49/6 65/50/6 31/14/6
f 32/46/4 34/51/4 3/52/4
f 20/31/4 3/52/4 34/51/4
f 33/53/5 34/24/5 32/54/5
f 16/27/6 52/55/6 50/56/6
f 8/18/4 51/44/4 17/17/4
f 47/57/5 49/58/5 48/59/5
f 36/60/5 40/61/5 39/62/5
f 39/62/5 37/63/5 35/64/5
f 43/65/2 35/66/2 41/67/2
f 70/12/2 41/67/2 69/13/2
f 40/68/4 51/44/4 42/69/4
f 40/61/5 56/70/5 37/63/5
f 53/71/3 59/72/3 63/73/3
f 65/74/1 68/75/1 54/76/1
f 50/56/6 49/77/6 47/78/6
f 52/45/7 48/79/7 49/80/7
f 54/81/7 58/82/7 55/83/7
f 55/84/6 57/85/6 53/71/6
f 60/86/11 58/87/11 56/70/11
f 61/88/10 57/85/10 58/89/10
f 53/71/9 64/90/9 55/84/9
f 55/91/8 62/92/8 54/76/8
f 37/93/4 68/94/4 66/95/4
f 37/93/4 54/81/4 68/94/4
f 67/96/1 68/75/1 65/74/1
f 50/56/3 45/97/3 11/98/3
f 11/98/12 46/99/12 12/100/12
f 12/101/13 44/102/13 10/103/13
f 10/103/14 38/104/14 4/105/14
f 4/105/14 36/106/14 2/107/14
f 36/108/2 43/65/2 70/12/2
f 69/109/4 41/110/4 66/95/4
f 4/111/1 6/4/1 10/1/1
f 6/4/1 14/2/1 10/1/1
f 14/2/1 15/112/1 13/113/1
f 13/113/1 11/3/1 14/2/1
f 11/3/1 12/114/1 10/1/1
f 6/4/1 4/111/1 2/5/1
f 3/7/1 6/4/1 5/6/1
f 1/9/2 5/115/2 9/10/2
f 7/11/2 9/10/2 70/12/2
f 31/14/3 65/50/3 42/15/3
f 17/17/4 14/2/4 6/4/4
f 22/19/1 26/37/1 6/4/1
f 19/20/3 29/40/3 25/21/3
f 8/116/5 28/42/5 31/25/5
f 28/42/5 20/23/5 31/25/5
f 15/26/6 18/117/6 16/27/6
f 14/2/7 17/17/7 18/29/7
f 20/31/7 21/118/7 24/32/7
f 19/20/6 23/22/6 24/34/6
f 24/36/8 27/119/8 26/37/8
f 23/22/9 25/21/9 27/38/9
f 19/20/10 21/35/10 30/39/10
f 21/41/11 20/23/11 28/42/11
f 18/29/7 17/17/7 51/44/7
f 32/46/7 66/95/7 67/47/7
f 33/49/6 67/120/6 65/50/6
f 3/52/4 1/121/4 32/46/4
f 1/121/4 7/122/4 32/46/4
f 20/31/4 22/33/4 3/52/4
f 33/53/5 31/25/5 34/24/5
f 16/27/6 18/117/6 52/55/6
f 8/18/4 42/69/4 51/44/4
f 48/59/5 40/61/5 44/123/5
f 40/61/5 38/124/5 44/123/5
f 44/123/5 46/125/5 45/126/5
f 48/59/5 44/123/5 45/126/5
f 45/126/5 47/57/5 48/59/5
f 36/60/5 38/124/5 40/61/5
f 39/62/5 40/61/5 37/63/5
f 43/65/2 39/127/2 35/66/2
f 70/12/2 43/65/2 41/67/2
f 40/68/4 48/79/4 51/44/4
f 40/61/5 60/86/5 56/70/5
f 53/71/3 57/85/3 59/72/3
f 54/76/1 62/92/1 65/74/1
f 62/92/1 42/128/1 65/74/1
f 50/56/6 52/55/6 49/77/6
f 52/45/7 51/44/7 48/79/7
f 54/81/7 56/129/7 58/82/7
f 55/84/6 58/89/6 57/85/6
f 60/86/11 61/130/11 58/87/11
f 61/88/10 59/72/10 57/85/10
f 53/71/9 63/73/9 64/90/9
f 55/91/8 64/131/8 62/92/8
f 41/110/4 35/132/4 66/95/4
f 35/132/4 37/93/4 66/95/4
f 37/93/4 56/129/4 54/81/4
f 67/96/1 66/133/1 68/75/1
f 11/98/3 13/28/3 16/27/3
f 50/56/3 47/78/3 45/97/3
f 11/98/3 16/27/3 50/56/3
f 11/98/12 45/97/12 46/99/12
f 12/101/13 46/134/13 44/102/13
f 10/103/14 44/102/14 38/104/14
f 4/105/14 38/104/14 36/106/14
f 5/115/2 2/135/2 9/10/2
f 2/135/2 36/108/2 70/12/2
f 9/10/2 2/135/2 70/12/2
f 36/108/2 39/127/2 43/65/2
f 66/95/4 32/46/4 69/109/4
f 32/46/4 7/122/4 69/109/4
